<svg xmlns="http://www.w3.org/2000/svg" viewBox="0 0 196 48" role="img" aria-label="deskhand">
  <g transform="translate(4 8)">
    <path d="M6 24 C6 10 26 10 26 24 Z" fill="#BE7B18"/>
    <rect x="15" y="7.5" width="2" height="5" rx="1" fill="#1F2328"/>
    <circle cx="16" cy="7.4" r="2.3" fill="#1F2328"/>
    <rect x="4" y="24" width="24" height="3.4" rx="1.7" fill="#1F2328"/>
  </g>
  <path d="M54.40 34.42Q52.54 34.42 50.99 33.52Q49.45 32.62 48.51 30.93Q47.56 29.23 47.56 26.83L47.56 26.38Q47.56 24.01 48.49 22.32Q49.42 20.62 50.98 19.70Q52.54 18.79 54.40 18.79Q56.56 18.79 57.72 19.55Q58.87 20.32 59.38 21.22L59.86 21.22L59.86 13L62.95 13L62.95 34L59.92 34L59.92 31.90L59.44 31.90Q58.87 32.86 57.72 33.64Q56.56 34.42 54.40 34.42M55.27 31.72Q57.28 31.72 58.59 30.43Q59.89 29.14 59.89 26.74L59.89 26.47Q59.89 24.10 58.59 22.81Q57.28 21.52 55.27 21.52Q53.26 21.52 51.97 22.81Q50.68 24.10 50.68 26.47L50.68 26.74Q50.68 29.14 51.98 30.43Q53.29 31.72 55.27 31.72M74.29 34.42Q72.04 34.42 70.36 33.48Q68.68 32.53 67.73 30.82Q66.79 29.11 66.79 26.80L66.79 26.44Q66.79 24.13 67.73 22.42Q68.68 20.71 70.33 19.75Q71.98 18.79 74.17 18.79Q76.30 18.79 77.91 19.73Q79.51 20.68 80.41 22.36Q81.31 24.04 81.31 26.29L81.31 27.46L69.94 27.46Q70 29.41 71.25 30.57Q72.49 31.72 74.35 31.72Q76.09 31.72 76.98 30.94Q77.86 30.16 78.34 29.14L80.92 30.46Q80.47 31.30 79.69 32.23Q78.91 33.16 77.59 33.79Q76.27 34.42 74.29 34.42M69.97 25.09L78.19 25.09Q78.04 23.44 76.96 22.48Q75.88 21.52 74.14 21.52Q72.40 21.52 71.31 22.48Q70.21 23.44 69.97 25.09M91.09 34.42Q88.24 34.42 86.38 33.16Q84.52 31.90 84.13 29.35L87.01 28.66Q87.34 30.52 88.47 31.23Q89.59 31.93 91.09 31.93Q92.56 31.93 93.36 31.38Q94.15 30.82 94.15 29.89Q94.15 28.99 93.40 28.57Q92.65 28.15 91.21 27.88L90.16 27.70Q88.66 27.43 87.43 26.92Q86.20 26.41 85.48 25.51Q84.76 24.61 84.76 23.20Q84.76 21.10 86.32 19.95Q87.88 18.79 90.46 18.79Q92.95 18.79 94.56 19.91Q96.16 21.04 96.64 22.96L93.76 23.77Q93.49 22.42 92.62 21.87Q91.75 21.31 90.46 21.31Q89.20 21.31 88.48 21.77Q87.76 22.24 87.76 23.08Q87.76 23.98 88.47 24.40Q89.17 24.82 90.37 25.03L91.42 25.21Q93.01 25.48 94.31 25.98Q95.62 26.47 96.40 27.36Q97.18 28.24 97.18 29.74Q97.18 31.99 95.52 33.20Q93.85 34.42 91.09 34.42M103.87 34L100.78 34L100.78 13L103.87 13L103.87 24.97L104.35 24.97L110.17 19.21L114.28 19.21L106.81 26.38L114.52 34L110.47 34L104.35 27.85L103.87 27.85" fill="#1F2328"/>
  <path d="M120.40 34L117.31 34L117.31 13L120.40 13L120.40 21.31L120.88 21.31Q121.30 20.47 122.35 19.72Q123.40 18.97 125.53 18.97Q127.21 18.97 128.51 19.72Q129.82 20.47 130.57 21.85Q131.32 23.23 131.32 25.12L131.32 34L128.23 34L128.23 25.36Q128.23 23.44 127.27 22.52Q126.31 21.61 124.63 21.61Q122.71 21.61 121.56 22.87Q120.40 24.13 120.40 26.53L120.40 34M140.35 34.42Q138.76 34.42 137.51 33.88Q136.27 33.34 135.53 32.29Q134.80 31.24 134.80 29.74Q134.80 27.49 136.41 26.34Q138.01 25.18 140.44 25.18L144.94 25.18L144.94 24.22Q144.94 22.96 144.16 22.16Q143.38 21.37 141.76 21.37Q140.17 21.37 139.33 22.12Q138.49 22.87 138.22 24.07L135.34 23.14Q135.70 21.97 136.49 20.98Q137.29 19.99 138.59 19.39Q139.90 18.79 141.79 18.79Q144.67 18.79 146.32 20.26Q147.97 21.73 147.97 24.43L147.97 30.52Q147.97 31.42 148.81 31.42L150.07 31.42L150.07 34L147.76 34Q146.74 34 146.08 33.46Q145.42 32.92 145.42 31.99L145.42 31.90L144.94 31.90Q144.70 32.38 144.22 32.97Q143.74 33.55 142.81 33.98Q141.88 34.42 140.35 34.42M140.80 31.87Q142.63 31.87 143.78 30.80Q144.94 29.74 144.94 27.88L144.94 27.58L140.62 27.58Q139.39 27.58 138.64 28.11Q137.89 28.63 137.89 29.65Q137.89 30.67 138.67 31.27Q139.45 31.87 140.80 31.87M156.16 34L153.07 34L153.07 19.21L156.10 19.21L156.10 21.43L156.58 21.43Q157 20.53 158.08 19.75Q159.16 18.97 161.29 18.97Q162.97 18.97 164.27 19.72Q165.58 20.47 166.33 21.85Q167.08 23.23 167.08 25.12L167.08 34L163.99 34L163.99 25.36Q163.99 23.44 163.03 22.52Q162.07 21.61 160.39 21.61Q158.47 21.61 157.31 22.87Q156.16 24.13 156.16 26.53L156.16 34M177.64 34.42Q175.78 34.42 174.23 33.52Q172.69 32.62 171.74 30.93Q170.80 29.23 170.80 26.83L170.80 26.38Q170.80 24.01 171.73 22.32Q172.66 20.62 174.22 19.70Q175.78 18.79 177.64 18.79Q179.80 18.79 180.95 19.55Q182.11 20.32 182.62 21.22L183.10 21.22L183.10 13L186.19 13L186.19 34L183.16 34L183.16 31.90L182.68 31.90Q182.11 32.86 180.95 33.64Q179.80 34.42 177.64 34.42M178.51 31.72Q180.52 31.72 181.82 30.43Q183.13 29.14 183.13 26.74L183.13 26.47Q183.13 24.10 181.82 22.81Q180.52 21.52 178.51 21.52Q176.50 21.52 175.21 22.81Q173.92 24.10 173.92 26.47L173.92 26.74Q173.92 29.14 175.22 30.43Q176.53 31.72 178.51 31.72" fill="#BE7B18"/>
</svg>
